<svg xmlns="http://www.w3.org/2000/svg" xmlns:xlink="http://www.w3.org/1999/xlink" width="500" zoomAndPan="magnify" viewBox="0 0 375 374.999991" height="500" preserveAspectRatio="xMidYMid meet" version="1.0"><defs><clipPath id="7068d8c108"><path d="M 58.59375 0 L 316.40625 0 C 348.765625 0 375 26.234375 375 58.59375 L 375 316.40625 C 375 348.765625 348.765625 375 316.40625 375 L 58.59375 375 C 26.234375 375 0 348.765625 0 316.40625 L 0 58.59375 C 0 26.234375 26.234375 0 58.59375 0 Z M 58.59375 0 " clip-rule="nonzero"/></clipPath></defs><g clip-path="url(#7068d8c108)"><rect x="-37.5" width="450" fill="#1c8f75" y="-37.499999" height="449.999989" fill-opacity="1"/></g><path fill="#d6e8e2" d="M 163.117188 169.613281 L 163.117188 247.34375 C 163.117188 253.046875 163.257812 257.761719 163.542969 261.484375 C 163.828125 265.199219 164.4375 268.355469 165.375 270.953125 C 166.320312 273.550781 167.589844 275.753906 169.191406 277.570312 C 170.800781 279.386719 173.011719 281.246094 175.839844 283.152344 L 96.960938 283.152344 C 99.792969 281.246094 102.003906 279.425781 103.601562 277.703125 C 105.207031 275.96875 106.480469 273.808594 107.425781 271.214844 C 108.367188 268.617188 108.980469 265.464844 109.265625 261.738281 C 109.542969 258.019531 109.683594 253.21875 109.683594 247.34375 L 109.683594 169.613281 C 109.679688 163.851562 109.539062 159.144531 109.265625 155.484375 C 108.980469 151.765625 108.367188 148.605469 107.425781 146.011719 C 106.480469 143.417969 105.207031 141.257812 103.601562 139.527344 C 102.003906 137.796875 99.792969 135.972656 96.960938 134.074219 L 175.839844 134.074219 C 173.011719 135.972656 170.800781 137.835938 169.191406 139.652344 C 167.589844 141.46875 166.320312 143.679688 165.375 146.277344 C 164.4375 148.867188 163.828125 152.019531 163.542969 155.742188 C 163.265625 159.40625 163.125 164.03125 163.117188 169.613281 Z M 163.117188 169.613281 " fill-opacity="1" fill-rule="nonzero"/><path fill="#3f9a82" d="M 150.699219 155.082031 C 150.699219 152.863281 148.902344 151.058594 146.683594 151.058594 C 144.464844 151.058594 142.664062 152.863281 142.664062 155.082031 L 142.664062 262.144531 C 142.664062 264.363281 144.464844 266.167969 146.683594 266.167969 C 148.902344 266.167969 150.699219 264.363281 150.699219 262.144531 Z M 150.699219 155.082031 " fill-opacity="1" fill-rule="evenodd"/><path fill="#3f9a82" d="M 130.113281 155.082031 C 130.113281 152.863281 128.3125 151.058594 126.097656 151.058594 C 123.878906 151.058594 122.078125 152.863281 122.078125 155.082031 L 122.078125 262.144531 C 122.078125 264.363281 123.878906 266.167969 126.097656 266.167969 C 128.3125 266.167969 130.113281 264.363281 130.113281 262.144531 Z M 130.113281 155.082031 " fill-opacity="1" fill-rule="evenodd"/><path fill="#ffffff" d="M 93.996094 129.535156 L 173.746094 129.535156 C 176.535156 129.535156 202.519531 129.617188 204.535156 129.792969 C 206.535156 129.964844 208.503906 130.3125 210.421875 130.832031 C 215.65625 132.214844 219.9375 135.328125 223.25 140.175781 C 226.566406 145.015625 228.230469 150.722656 228.230469 157.300781 C 228.230469 166.121094 225.472656 173.5625 219.980469 179.613281 C 214.480469 185.667969 206.929688 189.648438 197.324219 191.550781 L 192.144531 192.542969 L 197.324219 202.1875 C 205.179688 218.621094 211.640625 231.640625 216.707031 241.246094 C 221.761719 250.847656 226.222656 258.40625 230.0625 263.941406 C 232.851562 268.09375 235.472656 271.472656 237.910156 274.0625 C 240.363281 276.660156 243.066406 278.738281 246.035156 280.292969 C 248.996094 281.851562 252.355469 282.890625 256.117188 283.410156 C 259.863281 283.925781 264.449219 284.1875 269.859375 284.1875 C 275.796875 284.1875 281.820312 284.011719 287.929688 283.671875 C 294.035156 283.324219 300.757812 282.71875 308.089844 281.851562 C 294.128906 271.300781 273.175781 242.0625 245.25 194.148438 C 257.46875 188.957031 266.457031 182.773438 272.21875 175.59375 C 279.742188 166.21875 282.769531 154.511719 282.058594 142.851562 C 280.558594 118.386719 262.546875 94.101562 234.773438 91.902344 C 230.414062 91.554688 224.605469 91.335938 217.363281 91.253906 C 212.066406 91.191406 193.59375 91.148438 185.535156 91.128906 C 182.582031 91.128906 132.394531 91.121094 129.066406 91.121094 L 67.027344 91.121094 C 67.027344 105.824219 79.167969 129.535156 93.996094 129.535156 Z M 93.996094 129.535156 " fill-opacity="1" fill-rule="evenodd"/></svg>