<svg xmlns="http://www.w3.org/2000/svg" xmlns:xlink="http://www.w3.org/1999/xlink" width="500" zoomAndPan="magnify" viewBox="0 0 375 374.999991" height="500" preserveAspectRatio="xMidYMid meet" version="1.0"><defs><clipPath id="f177299892"><path d="M 58.59375 0 L 316.40625 0 C 348.765625 0 375 26.234375 375 58.59375 L 375 316.40625 C 375 348.765625 348.765625 375 316.40625 375 L 58.59375 375 C 26.234375 375 0 348.765625 0 316.40625 L 0 58.59375 C 0 26.234375 26.234375 0 58.59375 0 Z M 58.59375 0 " clip-rule="nonzero"/></clipPath></defs><g clip-path="url(#f177299892)"><rect x="-37.5" width="450" fill="#1c8f75" y="-37.499999" height="449.999989" fill-opacity="1"/></g><path fill="#ffffff" d="M 163.070312 169.484375 L 163.070312 247.089844 C 163.070312 252.785156 163.210938 257.492188 163.496094 261.210938 C 163.78125 264.917969 164.390625 268.070312 165.328125 270.664062 C 166.273438 273.253906 167.539062 275.457031 169.144531 277.269531 C 170.75 279.082031 172.960938 280.941406 175.789062 282.839844 L 96.945312 282.839844 C 99.773438 280.941406 101.984375 279.121094 103.585938 277.402344 C 105.1875 275.667969 106.460938 273.515625 107.40625 270.921875 C 108.34375 268.328125 108.957031 265.183594 109.242188 261.464844 C 109.523438 257.75 109.664062 252.957031 109.664062 247.089844 L 109.664062 169.484375 C 109.65625 163.730469 109.519531 159.03125 109.242188 155.375 C 108.957031 151.664062 108.34375 148.511719 107.40625 145.917969 C 106.460938 143.332031 105.1875 141.171875 103.585938 139.445312 C 101.984375 137.71875 99.773438 135.898438 96.945312 134 L 175.789062 134 C 172.960938 135.898438 170.75 137.757812 169.144531 139.570312 C 167.539062 141.382812 166.273438 143.589844 165.328125 146.183594 C 164.390625 148.769531 163.78125 151.917969 163.496094 155.636719 C 163.21875 159.292969 163.078125 163.910156 163.070312 169.484375 Z M 163.070312 169.484375 " fill-opacity="1" fill-rule="nonzero"/><path fill="#ffffff" d="M 150.660156 154.976562 C 150.660156 152.757812 148.859375 150.960938 146.644531 150.960938 C 144.425781 150.960938 142.628906 152.757812 142.628906 154.976562 L 142.628906 261.867188 C 142.628906 264.085938 144.425781 265.882812 146.644531 265.882812 C 148.859375 265.882812 150.660156 264.085938 150.660156 261.867188 Z M 150.660156 154.976562 " fill-opacity="1" fill-rule="evenodd"/><path fill="#ffffff" d="M 130.082031 154.976562 C 130.082031 152.757812 128.285156 150.960938 126.066406 150.960938 C 123.851562 150.960938 122.050781 152.757812 122.050781 154.976562 L 122.050781 261.867188 C 122.050781 264.085938 123.851562 265.882812 126.066406 265.882812 C 128.285156 265.882812 130.082031 264.085938 130.082031 261.867188 Z M 130.082031 154.976562 " fill-opacity="1" fill-rule="evenodd"/><path fill="#ffffff" d="M 93.980469 129.472656 L 173.695312 129.472656 C 176.480469 129.472656 202.453125 129.550781 204.46875 129.726562 C 206.46875 129.898438 208.433594 130.246094 210.351562 130.765625 C 215.585938 132.144531 219.863281 135.25 223.175781 140.089844 C 226.488281 144.925781 228.152344 150.625 228.152344 157.191406 C 228.152344 165.996094 225.398438 173.429688 219.90625 179.46875 C 214.40625 185.515625 206.863281 189.488281 197.261719 191.386719 L 192.082031 192.375 L 197.261719 202.007812 C 205.113281 218.414062 211.574219 231.410156 216.636719 241.003906 C 221.6875 250.589844 226.144531 258.136719 229.984375 263.664062 C 232.773438 267.808594 235.390625 271.183594 237.828125 273.769531 C 240.28125 276.363281 242.980469 278.4375 245.949219 279.988281 C 248.90625 281.542969 252.269531 282.582031 256.023438 283.101562 C 259.769531 283.613281 264.355469 283.875 269.761719 283.875 C 275.695312 283.875 281.714844 283.703125 287.824219 283.359375 C 293.925781 283.015625 300.648438 282.410156 307.972656 281.542969 C 294.019531 271.007812 273.078125 241.820312 245.164062 193.980469 C 257.378906 188.796875 266.363281 182.621094 272.121094 175.453125 C 279.640625 166.09375 282.667969 154.40625 281.957031 142.765625 C 280.457031 118.339844 262.453125 94.089844 234.691406 91.894531 C 230.332031 91.546875 224.527344 91.328125 217.289062 91.25 C 212 91.183594 193.535156 91.144531 185.476562 91.121094 C 182.527344 91.121094 132.363281 91.117188 129.035156 91.117188 L 67.027344 91.117188 C 67.027344 105.796875 79.160156 129.472656 93.980469 129.472656 Z M 93.980469 129.472656 " fill-opacity="1" fill-rule="evenodd"/></svg>